# xmcd CD database file generated by MAGIX-FreeDB-MP3_deluxe_MX v3.0beta1
#
# Track frame offsets:
#	150
#	13072
#	24695
#	33417
#	47117
#	56522
#	68852
#	77985
#	89607
#	98240
#	106602
#	121457
#	138372
#	146215
#	152467
#	161120
#	173650
#
# Disc length: 2513
#
# Revision: 6
# Processed by: cddbd v1.5.2PL0 Copyright (c) Steve Scherf et al.
# Submitted via: MAGIX-FreeDB-MP3_deluxe_MX v3.0beta1
#
DISCID=e509cf11
DTITLE=Randy Newman - Sail Away
DYEAR=1972
DGENRE=Rock
TTITLE0=Sail Away (Randy Newman)
TTITLE1=Lonely at the Top (Randy Newman)
TTITLE2=He Gives Us All His Love (Randy Newman)
TTITLE3=Last Night I Had a Dream (Randy Newman)
TTITLE4=Simon Smith and the Amazing Dancing Bear (Randy Newman)
TTITLE5=Old Man (Randy Newman)
TTITLE6=Political Science (Randy Newman)
TTITLE7=Burn On (Randy Newman)
TTITLE8=Memo to My Son (Randy Newman)
TTITLE9=Dayton, Ohio 1903 (Randy Newman)
TTITLE10=You Can Leave Your Hat On (Randy Newman)
TTITLE11=God's Song (That's Why I Love Mankind)
TTITLE12=(bonus track) Let It Shine
TTITLE13=(bonus track) Maybe I'm Doing It Wrong (Studio v.)
TTITLE14=(bonus track) Dayton, Ohio 1903 (Early v.)
TTITLE15=(bonus track) You Can Leave Your Hat On (Demo)
TTITLE16=(bonus track) Sail Away (Early v.)
EXTD=
EXTT0=YEAR: 1972
EXTT1=YEAR: 1972
EXTT2=YEAR: 1972
EXTT3=YEAR: 1972
EXTT4=YEAR: 1972
EXTT5=YEAR: 1972
EXTT6=YEAR: 1972
EXTT7=YEAR: 1972
EXTT8=YEAR: 1972
EXTT9=YEAR: 1972
EXTT10=YEAR: 1972
EXTT11=YEAR: 1972
EXTT12=YEAR: 1972
EXTT13=YEAR: 1972
EXTT14=YEAR: 1972
EXTT15=YEAR: 1972
EXTT16=YEAR: 1972
PLAYORDER=
